<svg width="40" height="40" viewBox="0 0 40 40" fill="none" xmlns="http://www.w3.org/2000/svg">
<circle cx="20" cy="20" r="19.5" stroke="#F6F6F5"/>
<g clip-path="url(#clip0_107_5)">
<path d="M20 20.5C21.6671 20.5 23.2659 19.8415 24.4447 18.6694C25.6235 17.4973 26.2857 15.9076 26.2857 14.25C26.2857 12.5924 25.6235 11.0027 24.4447 9.83058C23.2659 8.65848 21.6671 8 20 8C18.3329 8 16.7341 8.65848 15.5553 9.83058C14.3765 11.0027 13.7143 12.5924 13.7143 14.25C13.7143 15.9076 14.3765 17.4973 15.5553 18.6694C16.7341 19.8415 18.3329 20.5 20 20.5ZM17.7558 22.8438C12.9188 22.8438 9 26.7402 9 31.5498C9 32.3506 9.65313 33 10.4585 33H29.5415C30.3469 33 31 32.3506 31 31.5498C31 26.7402 27.0813 22.8438 22.2442 22.8438H17.7558Z" fill="#F6F6F5"/>
</g>
<defs>
<clipPath id="clip0_107_5">
<rect width="22" height="25" fill="white" transform="translate(9 8)"/>
</clipPath>
</defs>
</svg>
